<svg width="20" height="27" viewBox="0 0 20 27" fill="none" xmlns="http://www.w3.org/2000/svg">
<path d="M17.3 0.599998C18.55 0.599998 19.7 1.75 19.7 3V23.8C19.7 25.1 18.55 26.2 17.3 26.2H2.9C1.6 26.2 0.5 25.1 0.5 23.8V3C0.5 1.75 1.6 0.599998 2.9 0.599998H17.3ZM3.7 11V12.6C3.7 13.05 4.05 13.4 4.5 13.4H6.1C6.5 13.4 6.9 13.05 6.9 12.6V11C6.9 10.6 6.5 10.2 6.1 10.2H4.5C4.05 10.2 3.7 10.6 3.7 11ZM3.7 15.8V17.4C3.7 17.85 4.05 18.2 4.5 18.2H6.1C6.5 18.2 6.9 17.85 6.9 17.4V15.8C6.9 15.4 6.5 15 6.1 15H4.5C4.05 15 3.7 15.4 3.7 15.8ZM11.7 22.2V20.6C11.7 20.2 11.3 19.8 10.9 19.8H4.5C4.05 19.8 3.7 20.2 3.7 20.6V22.2C3.7 22.65 4.05 23 4.5 23H10.9C11.3 23 11.7 22.65 11.7 22.2ZM11.7 17.4V15.8C11.7 15.4 11.3 15 10.9 15H9.3C8.85 15 8.5 15.4 8.5 15.8V17.4C8.5 17.85 8.85 18.2 9.3 18.2H10.9C11.3 18.2 11.7 17.85 11.7 17.4ZM11.7 12.6V11C11.7 10.6 11.3 10.2 10.9 10.2H9.3C8.85 10.2 8.5 10.6 8.5 11V12.6C8.5 13.05 8.85 13.4 9.3 13.4H10.9C11.3 13.4 11.7 13.05 11.7 12.6ZM16.5 22.2V20.6C16.5 20.2 16.1 19.8 15.7 19.8H14.1C13.65 19.8 13.3 20.2 13.3 20.6V22.2C13.3 22.65 13.65 23 14.1 23H15.7C16.1 23 16.5 22.65 16.5 22.2ZM16.5 17.4V15.8C16.5 15.4 16.1 15 15.7 15H14.1C13.65 15 13.3 15.4 13.3 15.8V17.4C13.3 17.85 13.65 18.2 14.1 18.2H15.7C16.1 18.2 16.5 17.85 16.5 17.4ZM16.5 12.6V11C16.5 10.6 16.1 10.2 15.7 10.2H14.1C13.65 10.2 13.3 10.6 13.3 11V12.6C13.3 13.05 13.65 13.4 14.1 13.4H15.7C16.1 13.4 16.5 13.05 16.5 12.6ZM16.5 7.8V4.6C16.5 4.2 16.1 3.8 15.7 3.8H4.5C4.05 3.8 3.7 4.2 3.7 4.6V7.8C3.7 8.25 4.05 8.6 4.5 8.6H15.7C16.1 8.6 16.5 8.25 16.5 7.8Z" fill="#C4C4C4"/>
</svg>
