<svg width="26" height="21" viewBox="0 0 26 21" fill="none" xmlns="http://www.w3.org/2000/svg">
<path d="M3.9 -1.78814e-06C4.55 -1.78814e-06 5.1 0.549998 5.1 1.2V3.6C5.1 4.3 4.55 4.8 3.9 4.8H1.5C0.8 4.8 0.3 4.3 0.3 3.6V1.2C0.3 0.549998 0.8 -1.78814e-06 1.5 -1.78814e-06H3.9ZM23.5 0.799998C24.35 0.799998 25.1 1.55 25.1 2.4C25.1 3.3 24.35 4 23.5 4H9.1C8.2 4 7.5 3.3 7.5 2.4C7.5 1.55 8.2 0.799998 9.1 0.799998H23.5ZM23.5 8.8C24.35 8.8 25.1 9.55 25.1 10.4C25.1 11.3 24.35 12 23.5 12H9.1C8.2 12 7.5 11.3 7.5 10.4C7.5 9.55 8.2 8.8 9.1 8.8H23.5ZM23.5 16.8C24.35 16.8 25.1 17.55 25.1 18.4C25.1 19.3 24.35 20 23.5 20H9.1C8.2 20 7.5 19.3 7.5 18.4C7.5 17.55 8.2 16.8 9.1 16.8H23.5ZM0.3 9.2C0.3 8.55 0.8 8 1.5 8H3.9C4.55 8 5.1 8.55 5.1 9.2V11.6C5.1 12.3 4.55 12.8 3.9 12.8H1.5C0.8 12.8 0.3 12.3 0.3 11.6V9.2ZM3.9 16C4.55 16 5.1 16.55 5.1 17.2V19.6C5.1 20.3 4.55 20.8 3.9 20.8H1.5C0.8 20.8 0.3 20.3 0.3 19.6V17.2C0.3 16.55 0.8 16 1.5 16H3.9Z" fill="#7FB3D5"/>
</svg>
